<svg width="1024" height="1024" xmlns="http://www.w3.org/2000/svg" t="1675334875822" class="icon" version="1.1" p-id="12668">
 <g>
  <title>Layer 1</title>
  <path stroke="null" d="m998.25278,326.8l-104.8,104.9c-8.8,8.8 -20.4,13.3 -32,13.3s-23.2,-4.4 -32,-13.3l0,416c0,17.7 -14.3,32 -32,32l-288,0l0,1l-288,0c-17.7,0 -32,-14.3 -32,-32l0,-416c-8.8,8.8 -20.4,13.3 -32,13.3s-23.2,-4.4 -32,-13.3l-104.8,-104.9c-30.5,-30.5 -30.5,-79.8 0,-110.3l194.6,-194.6c14.2,-14.2 33.5,-22.2 53.7,-22.2l91.1,0c7.7,0 15.1,2.8 21,7.8c19.7,17.1 71.3,56.2 132,56.2c60.8,0 112.5,-39.3 132.1,-56.3c5.8,-5 13.1,-7.8 20.7,-7.8l83.8,-0.6l0.6,0c20.1,0 39.5,8 53.7,22.3l194.3,194.3c30.5,30.4 30.5,79.8 0,110.2z" fill="#8C8C8C" p-id="12669" id="svg_1"/>
 </g>

</svg>