<svg width="1024" height="1024" xmlns="http://www.w3.org/2000/svg" stroke="null" p-id="12668" version="1.1" class="icon" t="1675334875822">
 <g stroke="null">
  <title stroke="null">Layer 1</title>
  <path stroke="null" id="svg_1" p-id="12669" fill="#8C8C8C" d="m1000.80001,390.88845l-104.8,111.8855c-8.8,9.386 -20.4,14.18568 -32,14.18568s-23.2,-4.693 -32,-14.18568l0,443.70226c0,18.87868 -14.3,34.13094 -32,34.13094l-288,0l0,1.0666l-288,0c-17.7,0 -32,-15.25226 -32,-34.13094l0,-443.70226c-8.8,9.386 -20.4,14.18568 -32,14.18568s-23.2,-4.693 -32,-14.18568l-104.8,-111.8855c-30.5,-32.53105 -30.5,-85.11404 0,-117.64509l194.6,-207.5588c14.2,-15.1456 33.5,-23.67834 53.7,-23.67834l91.1,0c7.7,0 15.1,2.98646 21,8.31942c19.7,18.23872 71.3,59.94247 132,59.94247c60.8,0 112.5,-41.91706 132.1,-60.04913c5.8,-5.33296 13.1,-8.31942 20.7,-8.31942l83.8,-0.63996l0.6,0c20.1,0 39.5,8.53274 53.7,23.785l194.3,207.23882c30.5,32.42439 30.5,85.11404 0,117.53843z"/>
 </g>

</svg>