<svg xmlns="http://www.w3.org/2000/svg" xmlns:xlink="http://www.w3.org/1999/xlink" width="256" height="256" viewBox="0 0 256 256" fill="none"><rect x="0" y="0" width="0" height="0" fill="rgba(249, 249, 249, 1)" /><defs><filter id="filter_0" x="0" y="0" width="256" height="256" filterUnits="userSpaceOnUse" color-interpolation-filters="sRGB"></filter><rect id="path_0" x="0" y="0" width="256" height="256" /><filter id="filter_2" x="0" y="0" width="256" height="256" filterUnits="userSpaceOnUse" color-interpolation-filters="sRGB"><feFlood flood-opacity="0" result="BackgroundImageFix"/>
          <feColorMatrix in="SourceAlpha" type="matrix" values="0 0 0 0 0 0 0 0 0 0 0 0 0 0 0 0 0 0 127 0"/>
          <feOffset dx="0" dy="4"/>
          <feGaussianBlur stdDeviation="4"/>
          <feColorMatrix type="matrix" values="0 0 0 0 0 0 0 0 0 0 0 0 0 0 0 0 0 0 0.5 0"/>
          <feBlend mode="normal" in2="BackgroundImageFix" result="effect1_Shadow"/>
          <feBlend mode="normal" in="SourceGraphic" in2="effect1_Shadow" result="shape"/></filter></defs><g opacity="1" transform="translate(0 0)  rotate(0 128 128)"><rect fill="#FFFFFF" opacity="0" transform="translate(0 0)  rotate(0 128 128)" x="0" y="0" width="256" height="256" /><mask id="bg-mask" fill="white"><use xlink:href="#path_0"></use></mask><g mask="url(#bg-mask)" ><g id="矩形 1" filter="url(#filter_2)"><path id="矩形 1" fill-rule="evenodd" style="fill:#468699" transform="translate(8 8)  rotate(0 120 120)" opacity="1" d="M240,24C240,10.75 229.25,0 216,0L24,0C10.75,0 0,10.75 0,24L0,216C0,229.25 10.75,240 24,240L216,240C229.25,240 240,229.25 240,216Z " /></g><path id="矩形 2" fill-rule="evenodd" style="fill:#FACEB9" transform="translate(166 30)  rotate(0 30 20)" opacity="1" d="M0,32C0,36.42 3.58,40 8,40L52,40C56.42,40 60,36.42 60,32L60,8C60,3.58 56.42,0 52,0L8,0C3.58,0 0,3.58 0,8Z " /><path id="矩形 2" fill-rule="evenodd" style="fill:#FACEB9" transform="translate(91 30)  rotate(0 30 20)" opacity="1" d="M0,32C0,36.42 3.58,40 8,40L52,40C56.42,40 60,36.42 60,32L60,8C60,3.58 56.42,0 52,0L8,0C3.58,0 0,3.58 0,8Z " /><path id="矩形 2" fill-rule="evenodd" style="fill:#F7EAB4" transform="translate(166 82)  rotate(0 30 20)" opacity="1" d="M0,32C0,36.42 3.58,40 8,40L52,40C56.42,40 60,36.42 60,32L60,8C60,3.58 56.42,0 52,0L8,0C3.58,0 0,3.58 0,8Z " /><path id="矩形 2" fill-rule="evenodd" style="fill:#D6F7BC" transform="translate(166 134)  rotate(0 30 46)" opacity="1" d="M0,84C0,88.42 3.58,92 8,92L52,92C56.42,92 60,88.42 60,84L60,8C60,3.58 56.42,0 52,0L8,0C3.58,0 0,3.58 0,8Z " /><path id="矩形 2" fill-rule="evenodd" style="fill:#FCC2C2" transform="translate(91 82)  rotate(0 30 72)" opacity="1" d="M0,136C0,140.42 3.58,144 8,144L52,144C56.42,144 60,140.42 60,136L60,8C60,3.58 56.42,0 52,0L8,0C3.58,0 0,3.58 0,8Z " /></g></g></svg>